<mxfile host="65bd71144e">
    <diagram id="kmsWDe4WM-F9gXYO4-3t" name="Page-1">
        <mxGraphModel dx="1906" dy="1520" grid="1" gridSize="10" guides="1" tooltips="1" connect="1" arrows="1" fold="1" page="1" pageScale="1" pageWidth="827" pageHeight="1169" background="#001933" math="0" shadow="0">
            <root>
                <mxCell id="0"/>
                <mxCell id="1" parent="0"/>
                <mxCell id="2" value="" style="ellipse;whiteSpace=wrap;html=1;aspect=fixed;strokeColor=#6CC8F0;fillColor=#33FF33;" vertex="1" parent="1">
                    <mxGeometry x="150" y="190" width="170" height="170" as="geometry"/>
                </mxCell>
                <mxCell id="3" value="" style="shape=step;perimeter=stepPerimeter;whiteSpace=wrap;html=1;fixedSize=1;strokeColor=#6CC8F0;fillColor=#33FF33;" vertex="1" parent="1">
                    <mxGeometry x="440" y="230" width="120" height="80" as="geometry"/>
                </mxCell>
                <mxCell id="4" value="" style="shape=xor;whiteSpace=wrap;html=1;strokeColor=#6CC8F0;fillColor=#33FF33;" vertex="1" parent="1">
                    <mxGeometry x="470" y="230" width="60" height="80" as="geometry"/>
                </mxCell>
                <mxCell id="6" value="" style="whiteSpace=wrap;html=1;fillColor=#33FF33;strokeColor=#6CC8F0;" vertex="1" parent="1">
                    <mxGeometry x="640" y="245" width="120" height="60" as="geometry"/>
                </mxCell>
            </root>
        </mxGraphModel>
    </diagram>
</mxfile>